<svg width="270" height="56" viewBox="0 0 270 56" fill="none" xmlns="http://www.w3.org/2000/svg">
<rect y="9.29848" width="6.19899" height="37.1939" rx="3.09949" fill="white"/>
<rect x="139.821" y="9.29848" width="6.19899" height="37.1939" rx="3.09949" fill="white"/>
<rect x="15.4976" y="18.597" width="6.19899" height="18.597" rx="3.09949" fill="white"/>
<rect x="155.319" y="18.597" width="6.19899" height="18.597" rx="3.09949" fill="white"/>
<rect x="30.9946" y="12.398" width="6.19899" height="30.9949" rx="3.09949" fill="white"/>
<rect x="170.816" y="12.398" width="6.19899" height="30.9949" rx="3.09949" fill="white"/>
<rect x="46.4922" y="15.4975" width="6.19899" height="24.7959" rx="3.09949" fill="white"/>
<rect x="186.314" y="15.4975" width="6.19899" height="24.7959" rx="3.09949" fill="white"/>
<rect x="61.9893" width="6.19899" height="55.7909" rx="3.09949" fill="white"/>
<rect x="201.811" width="6.19899" height="55.7909" rx="3.09949" fill="white"/>
<rect x="77.4873" y="3.09949" width="6.19899" height="49.5919" rx="3.09949" fill="white"/>
<rect x="217.309" y="3.09949" width="6.19899" height="49.5919" rx="3.09949" fill="white"/>
<rect x="92.9849" y="17.0472" width="6.19899" height="21.6965" rx="3.09949" fill="white"/>
<rect x="232.806" y="17.0472" width="6.19899" height="21.6965" rx="3.09949" fill="white"/>
<rect x="108.482" y="9.29848" width="6.19899" height="37.1939" rx="3.09949" fill="white"/>
<rect x="248.304" y="9.29848" width="6.19899" height="37.1939" rx="3.09949" fill="white"/>
<rect x="123.979" y="18.597" width="6.19899" height="18.597" rx="3.09949" fill="white"/>
<rect x="263.801" y="18.597" width="6.19899" height="18.597" rx="3.09949" fill="white"/>
</svg>
