<svg width="336" height="70" viewBox="0 0 336 70" fill="none" xmlns="http://www.w3.org/2000/svg">
<rect y="11.5714" width="7.71429" height="46.2858" rx="3.85715" fill="#3131C9"/>
<rect x="174" y="11.5714" width="7.71429" height="46.2858" rx="3.85715" fill="#3131C9"/>
<rect x="19.2856" y="23.1429" width="7.71429" height="23.1429" rx="3.85715" fill="#3131C9"/>
<rect x="193.286" y="23.1429" width="7.71429" height="23.1429" rx="3.85715" fill="#3131C9"/>
<rect x="38.5713" y="15.4286" width="7.71429" height="38.5715" rx="3.85715" fill="#3131C9"/>
<rect x="212.571" y="15.4286" width="7.71429" height="38.5715" rx="3.85715" fill="#3131C9"/>
<rect x="57.8569" y="19.2857" width="7.71429" height="30.8572" rx="3.85715" fill="#3131C9"/>
<rect x="231.857" y="19.2857" width="7.71429" height="30.8572" rx="3.85715" fill="#3131C9"/>
<rect x="77.1426" width="7.71429" height="69.4286" rx="3.85715" fill="#3131C9"/>
<rect x="251.143" width="7.71429" height="69.4286" rx="3.85715" fill="#3131C9"/>
<rect x="96.4287" y="3.85714" width="7.71429" height="61.7143" rx="3.85715" fill="#3131C9"/>
<rect x="270.429" y="3.85714" width="7.71429" height="61.7143" rx="3.85715" fill="#3131C9"/>
<rect x="115.714" y="21.2143" width="7.71429" height="27" rx="3.85715" fill="#3131C9"/>
<rect x="289.714" y="21.2143" width="7.71429" height="27" rx="3.85715" fill="#3131C9"/>
<rect x="135" y="11.5714" width="7.71429" height="46.2858" rx="3.85715" fill="#3131C9"/>
<rect x="309" y="11.5714" width="7.71429" height="46.2858" rx="3.85715" fill="#3131C9"/>
<rect x="154.286" y="23.1429" width="7.71429" height="23.1429" rx="3.85715" fill="#3131C9"/>
<rect x="328.286" y="23.1429" width="7.71429" height="23.1429" rx="3.85715" fill="#3131C9"/>
</svg>
